<?xml version="1.0" encoding="UTF-8" standalone="no"?>
<svg
   xmlns:dc="http://purl.org/dc/elements/1.1/"
   xmlns:cc="http://creativecommons.org/ns#"
   xmlns:rdf="http://www.w3.org/1999/02/22-rdf-syntax-ns#"
   xmlns:svg="http://www.w3.org/2000/svg"
   xmlns="http://www.w3.org/2000/svg"
   xmlns:sodipodi="http://sodipodi.sourceforge.net/DTD/sodipodi-0.dtd"
   xmlns:inkscape="http://www.inkscape.org/namespaces/inkscape"
   stroke-miterlimit="10"
   font-weight="normal"
   font-style="normal"
   font-size="12"
   id="svg2"
   version="1.1"
   inkscape:version="0.91 r13725"
   sodipodi:docname="bottom_curly_bracket.svg"
   width="281.25"
   height="90"
   style="font-style:normal;font-weight:normal;font-size:12px;font-family:Dialog;color-interpolation:auto;fill:#000000;fill-opacity:1;stroke:#000000;stroke-width:1;stroke-linecap:square;stroke-linejoin:miter;stroke-miterlimit:10;stroke-dasharray:none;stroke-dashoffset:0;stroke-opacity:1;color-rendering:auto;image-rendering:auto;shape-rendering:auto;text-rendering:auto">
  <metadata
     id="metadata13">
    <rdf:RDF>
      <cc:Work
         rdf:about="">
        <dc:format>image/svg+xml</dc:format>
        <dc:type
           rdf:resource="http://purl.org/dc/dcmitype/StillImage" />
        <dc:title />
      </cc:Work>
    </rdf:RDF>
  </metadata>
  <sodipodi:namedview
     pagecolor="#ffffff"
     bordercolor="#666666"
     borderopacity="1"
     objecttolerance="10"
     gridtolerance="10"
     guidetolerance="10"
     inkscape:pageopacity="0"
     inkscape:pageshadow="2"
     inkscape:window-width="640"
     inkscape:window-height="480"
     id="namedview11"
     showgrid="false"
     fit-margin-top="0"
     fit-margin-left="0"
     fit-margin-right="0"
     fit-margin-bottom="0"
     inkscape:zoom="3.11"
     inkscape:cx="170.52153"
     inkscape:cy="118.88957"
     inkscape:current-layer="svg2" />
  <!--Unicode Character 'BOTTOM CURLY BRACKET' (U+23DF)-->
  <defs
     id="genericDefs" />
  <g
     id="g5"
     transform="translate(3.375,-154.6875)"
     style="fill:#0000ff">
    <g
       id="g7"
       style="fill:#0000ff">
      <path
         d="m 137.25,244.6875 -16.3125,-32.3437 q -4.5,-8.1563 -10.125,-8.1563 Q 99,204.75 82.6875,215.1562 66.375,225.5625 50.625,225.5625 -1.125,225 -3.375,173.25 l 0,-18.5625 22.5,0 0,18.5625 q 0.5625,30.9375 31.5,31.5 18,-0.5625 34.3125,-16.0312 16.3125,-15.4688 25.875,-15.4688 10.6875,0 16.875,11.25 l 9.5625,19.125 9.5625,-19.125 q 6.1875,-11.25 16.875,-11.25 9.5625,0 25.875,15.4688 16.3125,15.4687 34.3125,16.0312 30.9375,-0.5625 31.5,-31.5 l 0,-18.5625 22.5,0 0,18.5625 q -2.25,51.75 -54,52.3125 -15.75,0 -32.0625,-10.4063 -16.3125,-10.4062 -28.125,-10.9687 -5.625,0 -10.125,8.1563 L 137.25,244.6875 Z"
         id="path9"
         inkscape:connector-curvature="0"
         style="stroke:none;fill:#0000ff" />
    </g>
  </g>
</svg>
